<svg xmlns="http://www.w3.org/2000/svg" width="256" height="256" viewBox="0 0 256 256" version="1.1"><path d="M 131 103.953 C 131 136.177, 130.660 150.652, 129.862 152.404 C 127.515 157.554, 119.210 156.312, 116.992 150.479 C 116.108 148.153, 115.932 148.113, 112.287 149.409 C 101.567 153.220, 78.385 162.349, 77.605 163.066 C 75.891 164.643, 82.232 175.389, 88.561 181.633 C 98.815 191.749, 112.176 197, 127.661 197 C 152.239 197, 168.081 185.817, 174.774 163.744 C 176.113 159.330, 176.424 150.550, 176.741 108.250 L 177.118 58 154.059 58 L 131 58 131 103.953" stroke="none" fill="#fafafa" fill-rule="evenodd"/><path d="M 18.500 2.882 C 11.195 6.389, 5.957 11.689, 2.569 19 L 0.020 24.500 0.020 128 L 0.020 231.500 2.569 237 C 5.957 244.311, 11.195 249.611, 18.500 253.118 L 24.500 255.998 128 255.989 L 231.500 255.980 237 253.431 C 244.486 249.962, 249.558 244.815, 253.602 236.585 L 257 229.669 257 126.168 C 257 69.242, 256.714 22.952, 256.365 23.302 C 256.016 23.651, 254.494 21.363, 252.984 18.218 C 249.604 11.181, 244.230 5.919, 237 2.569 L 231.500 0.020 128 0.011 L 24.500 0.002 18.500 2.882 M 0.482 128 C 0.482 185.475, 0.602 208.987, 0.750 180.250 C 0.897 151.512, 0.897 104.487, 0.750 75.750 C 0.602 47.012, 0.482 70.525, 0.482 128 M 131 103.953 C 131 136.177, 130.660 150.652, 129.862 152.404 C 127.515 157.554, 119.210 156.312, 116.992 150.479 C 116.108 148.153, 115.932 148.113, 112.287 149.409 C 101.567 153.220, 78.385 162.349, 77.605 163.066 C 75.891 164.643, 82.232 175.389, 88.561 181.633 C 98.815 191.749, 112.176 197, 127.661 197 C 152.239 197, 168.081 185.817, 174.774 163.744 C 176.113 159.330, 176.424 150.550, 176.741 108.250 L 177.118 58 154.059 58 L 131 58 131 103.953" stroke="none" fill="#04040c" fill-rule="evenodd"/></svg>